<svg width="50" height="56" viewBox="0 0 50 56" fill="none" xmlns="http://www.w3.org/2000/svg">
<path d="M23.5 3.86602C24.4282 3.33013 25.5718 3.33013 26.5 3.86603L45.1506 14.634C46.0788 15.1699 46.6506 16.1603 46.6506 17.2321V38.768C46.6506 39.8397 46.0788 40.8301 45.1506 41.366L26.5 52.134C25.5718 52.6699 24.4282 52.6699 23.5 52.134L4.84936 41.366C3.92116 40.8301 3.34937 39.8397 3.34937 38.7679V17.232C3.34937 16.1603 3.92116 15.1699 4.84937 14.634L23.5 3.86602Z" stroke="#64FFDA" stroke-width="5"/>
<path d="M30.06 25.26C30.06 25.9267 29.9267 26.51 29.66 27.01C29.4 27.51 29.0433 27.93 28.59 28.27C28.1433 28.61 27.64 28.8733 27.08 29.06L30.87 35H27.73L24.46 29.49H23.2V35H20.47V21.17H24.54C26.36 21.17 27.7333 21.5067 28.66 22.18C29.5933 22.8533 30.06 23.88 30.06 25.26ZM27.22 25.26C27.22 24.5133 27.0033 23.9767 26.57 23.65C26.1367 23.3167 25.4833 23.15 24.61 23.15H23.2V27.55H24.7C25.5067 27.55 26.1267 27.37 26.56 27.01C27 26.65 27.22 26.0667 27.22 25.26Z" fill="white"/>
</svg>
