<svg width="27" height="27" viewBox="0 0 27 27" fill="none" xmlns="http://www.w3.org/2000/svg">
<path d="M3.375 9L12.2513 14.9175C12.621 15.1642 13.0555 15.2958 13.5 15.2958C13.9445 15.2958 14.379 15.1642 14.7487 14.9175L23.625 9M5.625 21.375H21.375C21.9717 21.375 22.544 21.1379 22.966 20.716C23.3879 20.294 23.625 19.7217 23.625 19.125V7.875C23.625 7.27826 23.3879 6.70597 22.966 6.28401C22.544 5.86205 21.9717 5.625 21.375 5.625H5.625C5.02826 5.625 4.45597 5.86205 4.03401 6.28401C3.61205 6.70597 3.375 7.27826 3.375 7.875V19.125C3.375 19.7217 3.61205 20.294 4.03401 20.716C4.45597 21.1379 5.02826 21.375 5.625 21.375Z" stroke="#64FFDA" stroke-width="2" stroke-linecap="round" stroke-linejoin="round"/>
</svg>
